<svg width="60" height="61" viewBox="0 0 60 61" fill="none" xmlns="http://www.w3.org/2000/svg">
    <path d="M30 7.10205C25.3645 7.10205 20.8331 8.47664 16.9788 11.052C13.1246 13.6273 10.1205 17.2878 8.34658 21.5704C6.57265 25.8531 6.10851 30.5655 7.01286 35.112C7.9172 39.6584 10.1494 43.8346 13.4272 47.1124C16.705 50.3902 20.8812 52.6224 25.4276 53.5267C29.974 54.431 34.6865 53.9669 38.9692 52.193C43.2518 50.419 46.9122 47.415 49.4876 43.5607C52.0629 39.7065 53.4375 35.1751 53.4375 30.5396C53.4251 24.3273 50.9518 18.3731 46.5591 13.9804C42.1664 9.58772 36.2122 7.11444 30 7.10205ZM30 52.1021C25.7354 52.1021 21.5665 50.8374 18.0205 48.4681C14.4746 46.0988 11.7109 42.7312 10.0789 38.7912C8.44684 34.8511 8.01983 30.5156 8.85183 26.3329C9.68382 22.1502 11.7375 18.3081 14.753 15.2926C17.7686 12.277 21.6107 10.2234 25.7934 9.39137C29.9761 8.55937 34.3116 8.98638 38.2516 10.6184C42.1917 12.2504 45.5593 15.0141 47.9286 18.5601C50.2979 22.106 51.5625 26.2749 51.5625 30.5396C51.5563 36.2564 49.2826 41.7373 45.2401 45.7797C41.1977 49.8221 35.7168 52.0958 30 52.1021ZM40.3125 30.5396C40.3125 30.7882 40.2137 31.0266 40.0379 31.2025C39.8621 31.3783 39.6236 31.4771 39.375 31.4771H22.8984L29.25 37.8286C29.418 38.0105 29.5113 38.249 29.5113 38.4966C29.5113 38.7442 29.418 38.9827 29.25 39.1646C29.1604 39.2517 29.0538 39.3196 28.9369 39.3639C28.82 39.4083 28.6952 39.4282 28.5703 39.4224C28.4492 39.4263 28.3284 39.4055 28.2156 39.3612C28.1028 39.3168 28.0002 39.2499 27.9141 39.1646L19.9688 31.1958C19.8809 31.1106 19.811 31.0086 19.7633 30.8959C19.7156 30.7831 19.691 30.662 19.691 30.5396C19.691 30.4171 19.7156 30.296 19.7633 30.1832C19.811 30.0705 19.8809 29.9685 19.9688 29.8833L27.9141 21.9145C28.0912 21.7374 28.3315 21.6379 28.582 21.6379C28.8326 21.6379 29.0729 21.7374 29.25 21.9145C29.4272 22.0917 29.5267 22.332 29.5267 22.5825C29.5267 22.8331 29.4272 23.0733 29.25 23.2505L22.8984 29.6021H39.375C39.6236 29.6021 39.8621 29.7008 40.0379 29.8766C40.2137 30.0525 40.3125 30.2909 40.3125 30.5396Z"
          fill="white"/>
</svg>
