<svg width="60" height="61" viewBox="0 0 60 61" fill="none" xmlns="http://www.w3.org/2000/svg">
    <path d="M30 7.10205C34.6355 7.10205 39.1669 8.47664 43.0212 11.052C46.8754 13.6273 49.8795 17.2878 51.6534 21.5704C53.4273 25.8531 53.8915 30.5655 52.9871 35.112C52.0828 39.6584 49.8506 43.8346 46.5728 47.1124C43.295 50.3902 39.1188 52.6224 34.5724 53.5267C30.026 54.431 25.3135 53.9669 21.0308 52.193C16.7482 50.419 13.0878 47.415 10.5124 43.5607C7.93708 39.7065 6.56249 35.1751 6.56249 30.5396C6.57487 24.3273 9.04816 18.3731 13.4409 13.9804C17.8336 9.58772 23.7878 7.11444 30 7.10205ZM30 52.1021C34.2646 52.1021 38.4335 50.8374 41.9795 48.4681C45.5254 46.0988 48.2891 42.7312 49.9211 38.7912C51.5532 34.8511 51.9802 30.5156 51.1482 26.3329C50.3162 22.1502 48.2625 18.3081 45.247 15.2926C42.2314 12.277 38.3893 10.2234 34.2066 9.39137C30.0239 8.55937 25.6884 8.98638 21.7484 10.6184C17.8083 12.2504 14.4407 15.0141 12.0714 18.5601C9.70211 22.106 8.43749 26.2749 8.43749 30.5396C8.44369 36.2564 10.7174 41.7373 14.7599 45.7797C18.8023 49.8221 24.2832 52.0958 30 52.1021ZM19.6875 30.5396C19.6875 30.7882 19.7863 31.0266 19.9621 31.2025C20.1379 31.3783 20.3764 31.4771 20.625 31.4771H37.1016L30.75 37.8286C30.582 38.0105 30.4887 38.249 30.4887 38.4966C30.4887 38.7442 30.582 38.9827 30.75 39.1646C30.8396 39.2517 30.9462 39.3196 31.0631 39.3639C31.18 39.4083 31.3048 39.4282 31.4297 39.4224C31.5508 39.4263 31.6716 39.4055 31.7844 39.3612C31.8972 39.3168 31.9998 39.2499 32.0859 39.1646L40.0312 31.1958C40.1191 31.1106 40.189 31.0086 40.2367 30.8959C40.2844 30.7831 40.309 30.662 40.309 30.5396C40.309 30.4171 40.2844 30.296 40.2367 30.1832C40.189 30.0705 40.1191 29.9685 40.0312 29.8833L32.0859 21.9145C31.9088 21.7374 31.6685 21.6379 31.418 21.6379C31.1674 21.6379 30.9271 21.7374 30.75 21.9145C30.5728 22.0917 30.4733 22.332 30.4733 22.5825C30.4733 22.8331 30.5728 23.0733 30.75 23.2505L37.1016 29.6021H20.625C20.3764 29.6021 20.1379 29.7008 19.9621 29.8766C19.7863 30.0525 19.6875 30.2909 19.6875 30.5396Z"
          fill="white"/>
</svg>
