<svg width="278" height="60" viewBox="0 0 278 60" fill="none" xmlns="http://www.w3.org/2000/svg">
    <path d="M67.9032 21.7798V19.0455H86.9941V21.7798H78.9899V44.5H75.9075V21.7798H67.9032ZM94.2868 33.0156V44.5H91.3536V19.0455H94.2868V28.392H94.5354C94.9829 27.406 95.654 26.623 96.5489 26.043C97.4521 25.4547 98.6536 25.1605 100.153 25.1605C101.454 25.1605 102.594 25.4215 103.571 25.9435C104.549 26.4573 105.307 27.2486 105.846 28.3175C106.393 29.3781 106.666 30.7287 106.666 32.3693V44.5H103.733V32.5682C103.733 31.0518 103.339 29.8794 102.552 29.0508C101.773 28.2139 100.692 27.7955 99.3082 27.7955C98.347 27.7955 97.4852 27.9985 96.7229 28.4045C95.9689 28.8105 95.3723 29.4029 94.9332 30.1818C94.5023 30.9607 94.2868 31.9053 94.2868 33.0156ZM120.037 44.8977C118.197 44.8977 116.61 44.4917 115.276 43.6797C113.951 42.8594 112.927 41.7159 112.206 40.2493C111.494 38.7744 111.137 37.0592 111.137 35.1037C111.137 33.1482 111.494 31.4247 112.206 29.9332C112.927 28.4335 113.93 27.2652 115.214 26.4283C116.507 25.5831 118.015 25.1605 119.738 25.1605C120.733 25.1605 121.714 25.3262 122.684 25.6577C123.653 25.9891 124.536 26.5277 125.331 27.2734C126.127 28.0109 126.761 28.9886 127.233 30.2067C127.705 31.4247 127.941 32.9245 127.941 34.706V35.9489H113.225V33.4134H124.958C124.958 32.3362 124.743 31.375 124.312 30.5298C123.89 29.6847 123.285 29.0176 122.498 28.5288C121.719 28.0399 120.799 27.7955 119.738 27.7955C118.57 27.7955 117.559 28.0855 116.706 28.6655C115.86 29.2372 115.21 29.983 114.754 30.9027C114.299 31.8224 114.071 32.8085 114.071 33.8608V35.5511C114.071 36.9929 114.319 38.2151 114.816 39.2177C115.322 40.212 116.022 40.9702 116.917 41.4922C117.812 42.0059 118.852 42.2628 120.037 42.2628C120.807 42.2628 121.503 42.1551 122.125 41.9396C122.754 41.7159 123.297 41.3845 123.753 40.9453C124.209 40.4979 124.561 39.9427 124.809 39.2798L127.643 40.0753C127.345 41.0365 126.844 41.8816 126.139 42.6108C125.435 43.3317 124.565 43.8951 123.529 44.3011C122.493 44.6989 121.329 44.8977 120.037 44.8977ZM142.645 44.5V19.0455H151.544C153.317 19.0455 154.78 19.352 155.931 19.9652C157.083 20.5701 157.941 21.3862 158.504 22.4137C159.068 23.4329 159.349 24.5639 159.349 25.8068C159.349 26.9006 159.155 27.8037 158.765 28.5163C158.384 29.2289 157.879 29.7924 157.249 30.2067C156.627 30.621 155.952 30.9276 155.223 31.1264V31.375C156.002 31.4247 156.785 31.6982 157.572 32.1953C158.359 32.6925 159.018 33.4051 159.548 34.3331C160.079 35.2611 160.344 36.3963 160.344 37.7386C160.344 39.0147 160.054 40.1623 159.474 41.1815C158.894 42.2006 157.978 43.0085 156.727 43.6051C155.476 44.2017 153.848 44.5 151.842 44.5H142.645ZM145.727 41.7656H151.842C153.856 41.7656 155.285 41.3762 156.13 40.5973C156.984 39.8101 157.411 38.8572 157.411 37.7386C157.411 36.8769 157.191 36.0814 156.752 35.3523C156.313 34.6148 155.687 34.0265 154.875 33.5874C154.063 33.1399 153.102 32.9162 151.991 32.9162H145.727V41.7656ZM145.727 30.2315H151.445C152.373 30.2315 153.21 30.0492 153.955 29.6847C154.709 29.3201 155.306 28.8063 155.745 28.1435C156.192 27.4806 156.416 26.7017 156.416 25.8068C156.416 24.6882 156.027 23.7395 155.248 22.9606C154.469 22.1734 153.234 21.7798 151.544 21.7798H145.727V30.2315ZM173.015 44.8977C171.176 44.8977 169.589 44.4917 168.255 43.6797C166.929 42.8594 165.906 41.7159 165.185 40.2493C164.472 38.7744 164.116 37.0592 164.116 35.1037C164.116 33.1482 164.472 31.4247 165.185 29.9332C165.906 28.4335 166.908 27.2652 168.193 26.4283C169.485 25.5831 170.993 25.1605 172.717 25.1605C173.711 25.1605 174.693 25.3262 175.662 25.6577C176.632 25.9891 177.514 26.5277 178.31 27.2734C179.105 28.0109 179.739 28.9886 180.211 30.2067C180.684 31.4247 180.92 32.9245 180.92 34.706V35.9489H166.204V33.4134H177.937C177.937 32.3362 177.722 31.375 177.291 30.5298C176.868 29.6847 176.263 29.0176 175.476 28.5288C174.697 28.0399 173.777 27.7955 172.717 27.7955C171.548 27.7955 170.538 28.0855 169.684 28.6655C168.839 29.2372 168.189 29.983 167.733 30.9027C167.277 31.8224 167.049 32.8085 167.049 33.8608V35.5511C167.049 36.9929 167.298 38.2151 167.795 39.2177C168.3 40.212 169.001 40.9702 169.895 41.4922C170.79 42.0059 171.83 42.2628 173.015 42.2628C173.786 42.2628 174.482 42.1551 175.103 41.9396C175.733 41.7159 176.276 41.3845 176.731 40.9453C177.187 40.4979 177.539 39.9427 177.788 39.2798L180.622 40.0753C180.323 41.0365 179.822 41.8816 179.118 42.6108C178.413 43.3317 177.543 43.8951 176.508 44.3011C175.472 44.6989 174.308 44.8977 173.015 44.8977ZM198.905 29.6847L196.27 30.4304C196.104 29.9912 195.86 29.5645 195.536 29.1502C195.222 28.7276 194.791 28.3796 194.244 28.1062C193.697 27.8327 192.997 27.696 192.143 27.696C190.975 27.696 190.001 27.9653 189.222 28.5039C188.452 29.0342 188.067 29.7095 188.067 30.5298C188.067 31.259 188.332 31.8349 188.862 32.2575C189.392 32.68 190.221 33.0322 191.348 33.3139L194.182 34.0099C195.889 34.4242 197.16 35.0581 197.997 35.9116C198.834 36.7567 199.253 37.8464 199.253 39.1804C199.253 40.2741 198.938 41.2519 198.308 42.1136C197.687 42.9754 196.817 43.6548 195.698 44.152C194.579 44.6491 193.278 44.8977 191.795 44.8977C189.848 44.8977 188.236 44.4751 186.96 43.63C185.684 42.7848 184.876 41.5502 184.537 39.9261L187.321 39.2301C187.586 40.2576 188.087 41.0282 188.825 41.5419C189.57 42.0556 190.544 42.3125 191.746 42.3125C193.113 42.3125 194.198 42.0225 195.002 41.4425C195.814 40.8542 196.22 40.1499 196.22 39.3295C196.22 38.6667 195.988 38.1115 195.524 37.6641C195.06 37.2083 194.347 36.8686 193.386 36.6449L190.204 35.8991C188.456 35.4848 187.172 34.8427 186.351 33.9727C185.539 33.0943 185.133 31.9964 185.133 30.679C185.133 29.6018 185.436 28.6489 186.041 27.8203C186.654 26.9917 187.487 26.3413 188.539 25.869C189.599 25.3967 190.801 25.1605 192.143 25.1605C194.032 25.1605 195.516 25.5748 196.593 26.4034C197.678 27.232 198.449 28.3258 198.905 29.6847ZM211.971 25.4091V27.8949H202.077V25.4091H211.971ZM204.961 20.8352H207.894V39.0312C207.894 39.8598 208.014 40.4813 208.254 40.8956C208.503 41.3016 208.818 41.575 209.199 41.7159C209.588 41.8485 209.999 41.9148 210.429 41.9148C210.753 41.9148 211.018 41.8982 211.225 41.8651C211.432 41.8236 211.598 41.7905 211.722 41.7656L212.319 44.4006C212.12 44.4751 211.842 44.5497 211.486 44.6243C211.13 44.7071 210.678 44.7486 210.131 44.7486C209.303 44.7486 208.491 44.5704 207.695 44.2141C206.908 43.8578 206.253 43.3151 205.731 42.5859C205.218 41.8568 204.961 40.937 204.961 39.8267V20.8352ZM226.637 32.2202V34.9545H215.5V32.2202H226.637ZM253.673 31.7727C253.673 34.4574 253.188 36.7775 252.219 38.733C251.249 40.6884 249.919 42.1965 248.229 43.2571C246.539 44.3177 244.608 44.848 242.437 44.848C240.266 44.848 238.336 44.3177 236.645 43.2571C234.955 42.1965 233.625 40.6884 232.656 38.733C231.686 36.7775 231.201 34.4574 231.201 31.7727C231.201 29.0881 231.686 26.768 232.656 24.8125C233.625 22.857 234.955 21.349 236.645 20.2884C238.336 19.2277 240.266 18.6974 242.437 18.6974C244.608 18.6974 246.539 19.2277 248.229 20.2884C249.919 21.349 251.249 22.857 252.219 24.8125C253.188 26.768 253.673 29.0881 253.673 31.7727ZM250.69 31.7727C250.69 29.5687 250.321 27.7085 249.584 26.1921C248.855 24.6758 247.864 23.5282 246.613 22.7493C245.37 21.9704 243.978 21.581 242.437 21.581C240.896 21.581 239.5 21.9704 238.249 22.7493C237.006 23.5282 236.016 24.6758 235.278 26.1921C234.549 27.7085 234.184 29.5687 234.184 31.7727C234.184 33.9768 234.549 35.837 235.278 37.3533C236.016 38.8697 237.006 40.0173 238.249 40.7962C239.5 41.575 240.896 41.9645 242.437 41.9645C243.978 41.9645 245.37 41.575 246.613 40.7962C247.864 40.0173 248.855 38.8697 249.584 37.3533C250.321 35.837 250.69 33.9768 250.69 31.7727ZM261.391 33.0156V44.5H258.458V25.4091H261.292V28.392H261.54C261.988 27.4226 262.667 26.6437 263.579 26.0554C264.49 25.4588 265.667 25.1605 267.109 25.1605C268.401 25.1605 269.532 25.4257 270.502 25.956C271.471 26.478 272.225 27.2734 272.764 28.3423C273.302 29.4029 273.572 30.7453 273.572 32.3693V44.5H270.638V32.5682C270.638 31.0684 270.249 29.9001 269.47 29.0632C268.691 28.218 267.622 27.7955 266.263 27.7955C265.327 27.7955 264.49 27.9985 263.753 28.4045C263.024 28.8105 262.448 29.4029 262.025 30.1818C261.603 30.9607 261.391 31.9053 261.391 33.0156Z"
          fill="#F1B634"/>
    <path fill-rule="evenodd" clip-rule="evenodd"
          d="M30.1308 59.4998C46.4382 59.4998 59.658 46.28 59.658 29.9725C59.658 13.6651 46.4382 0.445312 30.1308 0.445312C13.8233 0.445312 0.603516 13.6651 0.603516 29.9725C0.603516 46.28 13.8233 59.4998 30.1308 59.4998ZM47.872 25.8106H32.1313L38.4276 6.92171H22.6868L16.3906 35.255H28.9831V54.1345L47.872 25.8106Z"
          fill="url(#paint0_linear_83_310)"/>
    <defs>
        <linearGradient id="paint0_linear_83_310" x1="16.9021" y1="4.45497" x2="35.7177" y2="59.4998"
                        gradientUnits="userSpaceOnUse">
            <stop stop-color="#F1B634" stop-opacity="0.26"/>
            <stop offset="1" stop-color="#F1B634"/>
        </linearGradient>
    </defs>
</svg>
